# File created by Blade
# Date/Time:  Wed Jan 21 16:14:13 2015
# Frame Rate: 120.000 fps
#------------------------------------------------------
:FULLY-SPECIFIED
:DEGREES
447
root 18.459572 35.634363 -19.983370 -170.798035 -4.946283 -179.252857
Spine -15.089953 -0.257621 -1.165102
Head 5.641207 -5.707433 0.119265
LeftShoulder -17.044492 -25.743241 30.283106
LeftArm -28.352310 12.137526 -17.138529
LeftForeArm 10.138667 -0.000000 -1.511334
LeftHand -9.160987 -0.000000 -3.823210
LeftHandThumb1 -26.253704 0.000000 33.147579
RightShoulder -16.867277 -11.540789 -20.019714
RightArm -23.019263 36.759789 16.562839
RightForeArm -25.435748 -0.000000 7.903307
RightHand -2.639527 -0.000000 6.938945
RightHandThumb1 -24.326973 -0.000000 -32.862282
LeftUpLeg -2.733526 6.683156 -0.224082
LeftLeg -4.164903 -0.000000 0.000000
LeftFoot -20.344236 24.576465 -12.061027
LeftToeBase 26.364206 -0.000000 -0.000000
RightUpLeg -3.371339 -8.462692 1.850180
RightLeg -1.058162 -0.000000 0.000000
RightFoot -22.714208 -28.018664 16.193197
RightToeBase 23.038492 -0.000000 -0.000000
448
root 18.462456 35.631207 -20.003329 -170.794414 -4.951068 -179.268157
Spine -15.033441 -0.245134 -1.202029
Head 5.775652 -5.744772 -0.067425
LeftShoulder -17.231423 -25.569488 30.273724
LeftArm -29.402774 11.776422 -17.181229
LeftForeArm 9.250311 -0.000000 -1.441909
LeftHand -9.714226 -0.000000 -3.729299
LeftHandThumb1 -26.253704 0.000000 33.147579
RightShoulder -17.186628 -11.701136 -19.957998
RightArm -24.243264 37.138786 16.569784
RightForeArm -25.782714 0.000000 7.958679
RightHand -3.267541 -0.000000 6.897999
RightHandThumb1 -24.326973 -0.000000 -32.862282
LeftUpLeg -2.694772 6.641392 -0.220029
LeftLeg -4.175174 -0.000000 0.000000
LeftFoot -20.376832 24.570084 -12.084700
LeftToeBase 26.344243 -0.000000 -0.000000
RightUpLeg -3.332728 -8.507914 1.848566
RightLeg -1.076376 -0.000000 0.000000
RightFoot -22.776219 -28.026963 16.206601
RightToeBase 23.095281 -0.000000 -0.000000
449
root 18.465080 35.628390 -20.024107 -170.784395 -4.937053 -179.270706
Spine -14.975317 -0.252146 -1.231508
Head 5.806540 -5.722940 -0.142381
LeftShoulder -17.510883 -25.460947 30.324066
LeftArm -30.383541 11.474561 -17.204195
LeftForeArm 8.741760 0.000000 -1.279011
LeftHand -10.223455 -0.000000 -4.002413
LeftHandThumb1 -26.253704 0.000000 33.147579
RightShoulder -17.598817 -11.950799 -19.824386
RightArm -25.114399 37.545059 16.738345
RightForeArm -26.484640 -0.000000 7.979036
RightHand -3.877824 -0.000000 6.989361
RightHandThumb1 -24.326973 -0.000000 -32.862282
LeftUpLeg -2.642735 6.616822 -0.209466
LeftLeg -4.230748 -0.000000 0.000000
LeftFoot -20.430589 24.617036 -12.160200
LeftToeBase 26.427807 -0.000000 -0.000000
RightUpLeg -3.296093 -8.545897 1.849588
RightLeg -1.104542 -0.000000 0.000000
RightFoot -22.766983 -28.003722 16.138091
RightToeBase 23.049454 -0.000000 -0.000000
450
root 18.467594 35.626051 -20.045214 -170.765901 -4.993012 -179.270085
Spine -14.965346 -0.342351 -1.240806
Head 5.954172 -5.589863 -0.236413
LeftShoulder -17.694841 -25.518697 30.311418
LeftArm -31.398175 11.509045 -17.248632
LeftForeArm 8.133331 -0.000000 -1.278106
LeftHand -10.623812 -0.000000 -3.842634
LeftHandThumb1 -26.253704 0.000000 33.147579
RightShoulder -17.929184 -12.334899 -19.551304
RightArm -25.715404 37.467733 17.092509
RightForeArm -26.500483 -0.000000 7.816177
RightHand -4.194379 -0.000000 7.199754
RightHandThumb1 -24.326973 -0.000000 -32.862282
LeftUpLeg -2.612152 6.503507 -0.185595
LeftLeg -4.266208 -0.000000 0.000000
LeftFoot -20.447598 24.659680 -12.163048
LeftToeBase 26.441090 -0.000000 -0.000000
RightUpLeg -3.253363 -8.687803 1.872296
RightLeg -1.150900 -0.000000 0.000000
RightFoot -22.784218 -27.920681 16.158099
RightToeBase 23.108343 -0.000000 -0.000000
451
root 18.467391 35.623807 -20.064815 -170.740394 -5.036997 -179.267815
Spine -14.953590 -0.430417 -1.236171
Head 6.033135 -5.544502 -0.286361
LeftShoulder -17.988871 -25.353364 30.338365
LeftArm -32.165048 11.380035 -17.419158
LeftForeArm 7.795676 -0.000000 -1.269778
LeftHand -10.847586 0.000000 -4.168232
LeftHandThumb1 -26.253704 0.000000 33.147579
RightShoulder -18.223717 -12.677040 -19.293949
RightArm -26.313068 37.298961 17.502301
RightForeArm -26.602610 -0.000000 7.822153
RightHand -4.805791 -0.000000 7.659812
RightHandThumb1 -24.326973 -0.000000 -32.862282
LeftUpLeg -2.587982 6.415425 -0.172483
LeftLeg -4.305761 -0.000000 0.000000
LeftFoot -20.466040 24.702496 -12.193668
LeftToeBase 26.380402 -0.000000 -0.000000
RightUpLeg -3.218730 -8.822661 1.888472
RightLeg -1.203763 -0.000000 0.000000
RightFoot -22.780011 -27.866452 16.163436
RightToeBase 23.063773 -0.000000 -0.000000
452
root 18.469103 35.621381 -20.081530 -170.725743 -5.059363 -179.264910
Spine -14.933967 -0.492283 -1.239593
Head 6.099325 -5.418098 -0.328338
LeftShoulder -18.285257 -25.133630 30.303425
LeftArm -32.772635 11.330309 -17.635559
LeftForeArm 7.499536 0.000000 -1.315877
LeftHand -10.990913 -0.000000 -4.262905
LeftHandThumb1 -26.253704 0.000000 33.147579
RightShoulder -18.541301 -13.033976 -19.049237
RightArm -26.666628 36.879837 18.196050
RightForeArm -26.200608 -0.000000 7.806900
RightHand -5.400578 -0.000000 7.932173
RightHandThumb1 -24.326973 -0.000000 -32.862282
LeftUpLeg -2.548553 6.360480 -0.156865
LeftLeg -4.361530 -0.000000 0.000000
LeftFoot -20.493224 24.722621 -12.227598
LeftToeBase 26.399359 -0.000000 -0.000000
RightUpLeg -3.184685 -8.896518 1.899970
RightLeg -1.241188 -0.000000 0.000000
RightFoot -22.776457 -27.804822 16.152871
RightToeBase 23.032979 -0.000000 -0.000000
453
root 18.471741 35.618594 -20.098841 -170.711901 -5.049772 -179.253983
Spine -14.939217 -0.595203 -1.241714
Head 6.241557 -5.196532 -0.355125
LeftShoulder -18.575439 -24.877966 30.331542
LeftArm -33.391695 11.248329 -17.874168
LeftForeArm 7.237402 0.000000 -1.367186
LeftHand -11.151156 0.000000 -4.475661
LeftHandThumb1 -26.253704 0.000000 33.147579
RightShoulder -18.802158 -13.447497 -18.767034
RightArm -26.870056 36.660507 18.883317
RightForeArm -25.677604 -0.000000 7.640064
RightHand -5.796241 0.000000 8.183030
RightHandThumb1 -24.326973 -0.000000 -32.862282
LeftUpLeg -2.501713 6.340084 -0.135152
LeftLeg -4.420671 -0.000000 0.000000
LeftFoot -20.482860 24.750810 -12.201331
LeftToeBase 26.393453 -0.000000 -0.000000
RightUpLeg -3.154499 -8.930176 1.915628
RightLeg -1.276783 -0.000000 0.000000
RightFoot -22.795058 -27.779937 16.164086
RightToeBase 23.277880 -0.000000 -0.000000
454
root 18.476166 35.616742 -20.115556 -170.705707 -5.018052 -179.242019
Spine -14.953590 -0.628162 -1.254372
Head 6.370548 -5.027480 -0.348811
LeftShoulder -18.824043 -24.574072 30.259794
LeftArm -33.778631 11.061175 -17.992299
LeftForeArm 7.066256 0.000000 -1.467446
LeftHand -11.132831 -0.000000 -4.761874
LeftHandThumb1 -26.253704 0.000000 33.147579
RightShoulder -19.094626 -13.767631 -18.537358
RightArm -27.128765 36.662477 19.405953
RightForeArm -25.342241 -0.000000 7.312051
RightHand -5.745344 -0.000000 8.385442
RightHandThumb1 -24.326973 -0.000000 -32.862282
LeftUpLeg -2.441651 6.325630 -0.110570
LeftLeg -4.479642 -0.000000 0.000000
LeftFoot -20.459094 24.746315 -12.156220
LeftToeBase 26.328268 -0.000000 -0.000000
RightUpLeg -3.120692 -8.903080 1.931512
RightLeg -1.310377 -0.000000 0.000000
RightFoot -22.813601 -27.769440 16.194474
RightToeBase 23.090079 -0.000000 -0.000000
455
root 18.480840 35.614132 -20.130875 -170.687152 -5.000372 -179.245024
Spine -14.995329 -0.668702 -1.307385
Head 6.506878 -4.905062 -0.285096
LeftShoulder -19.070930 -24.279683 30.229305
LeftArm -34.006772 10.803199 -18.042366
LeftForeArm 7.069414 -0.000000 -1.652954
LeftHand -11.446311 0.000000 -4.762863
LeftHandThumb1 -26.253704 0.000000 33.147579
RightShoulder -19.348146 -14.011648 -18.339116
RightArm -27.474498 36.852212 19.794613
RightForeArm -24.997664 -0.000000 7.036323
RightHand -5.991065 0.000000 8.664189
RightHandThumb1 -24.326973 -0.000000 -32.862282
LeftUpLeg -2.397065 6.310487 -0.099637
LeftLeg -4.550210 -0.000000 0.000000
LeftFoot -20.494759 24.773250 -12.242887
LeftToeBase 26.397114 -0.000000 -0.000000
RightUpLeg -3.102336 -8.901895 1.937084
RightLeg -1.336679 -0.000000 0.000000
RightFoot -22.827172 -27.784701 16.176065
RightToeBase 23.291256 -0.000000 -0.000000
456
root 18.486496 35.612729 -20.146475 -170.679974 -4.995276 -179.239490
Spine -15.046966 -0.718820 -1.337422
Head 6.694659 -4.741499 -0.281393
LeftShoulder -19.291593 -23.981221 30.177281
LeftArm -34.141587 10.495638 -18.037646
LeftForeArm 7.095427 -0.000000 -1.753223
LeftHand -11.527656 -0.000000 -5.231982
LeftHandThumb1 -26.253704 0.000000 33.147579
RightShoulder -19.608526 -14.242251 -18.169655
RightArm -27.792112 37.259376 20.066859
RightForeArm -24.948955 -0.000000 6.683690
RightHand -6.009098 -0.000000 8.940227
RightHandThumb1 -24.326973 -0.000000 -32.862282
LeftUpLeg -2.343286 6.248195 -0.072984
LeftLeg -4.613063 -0.000000 0.000000
LeftFoot -20.483832 24.814626 -12.252528
LeftToeBase 26.387516 -0.000000 -0.000000
RightUpLeg -3.077190 -8.903822 1.952651
RightLeg -1.351603 -0.000000 0.000000
RightFoot -22.848829 -27.772375 16.183157
RightToeBase 23.067551 -0.000000 -0.000000
457
root 18.493992 35.610121 -20.164512 -170.686245 -5.010427 -179.227726
Spine -15.105650 -0.801755 -1.380433
Head 6.876693 -4.656247 -0.177094
LeftShoulder -19.479190 -23.750914 30.178164
LeftArm -34.250644 10.281697 -18.026531
LeftForeArm 7.051473 0.000000 -1.815697
LeftHand -11.562770 -0.000000 -5.459595
LeftHandThumb1 -26.253704 0.000000 33.147579
RightShoulder -19.818255 -14.410404 -17.987665
RightArm -28.060571 37.643023 20.266437
RightForeArm -24.849800 -0.000000 6.299269
RightHand -6.137036 -0.000000 9.320554
RightHandThumb1 -24.326973 -0.000000 -32.862282
LeftUpLeg -2.282049 6.189916 -0.033463
LeftLeg -4.661804 -0.000000 0.000000
LeftFoot -20.489952 24.833006 -12.257136
LeftToeBase 26.317800 -0.000000 -0.000000
RightUpLeg -3.024838 -8.936514 1.979574
RightLeg -1.385973 -0.000000 0.000000
RightFoot -22.863979 -27.773581 16.174011
RightToeBase 23.105836 -0.000000 -0.000000
458
root 18.500090 35.608144 -20.180786 -170.684070 -4.989636 -179.216224
Spine -15.196227 -0.858554 -1.412252
Head 7.104058 -4.532137 -0.114342
LeftShoulder -19.631007 -23.633773 30.172860
LeftArm -34.330190 10.126198 -17.890302
LeftForeArm 7.023056 -0.000000 -1.876311
LeftHand -11.620772 -0.000000 -5.765773
LeftHandThumb1 -26.253704 0.000000 33.147579
RightShoulder -19.988781 -14.530168 -17.836662
RightArm -28.428415 38.170634 20.287259
RightForeArm -25.184581 -0.000000 6.149052
RightHand -6.504816 0.000000 9.986037
RightHandThumb1 -24.326973 -0.000000 -32.862282
LeftUpLeg -2.228481 6.139435 -0.000702
LeftLeg -4.704344 -0.000000 0.000000
LeftFoot -20.503411 24.831179 -12.265539
LeftToeBase 26.335531 -0.000000 -0.000000
RightUpLeg -2.998212 -8.907780 1.996962
RightLeg -1.397116 -0.000000 0.000000
RightFoot -22.877187 -27.789776 16.188170
RightToeBase 23.268626 -0.000000 -0.000000
459
root 18.506290 35.606032 -20.196363 -170.688168 -4.946667 -179.202472
Spine -15.294913 -0.908523 -1.442683
Head 7.335283 -4.383042 -0.056427
LeftShoulder -19.748872 -23.569668 30.191069
LeftArm -34.377329 10.000654 -17.718245
LeftForeArm 7.020950 0.000000 -1.881285
LeftHand -11.792281 0.000000 -5.949040
LeftHandThumb1 -26.253704 0.000000 33.147579
RightShoulder -20.132799 -14.609705 -17.723611
RightArm -28.647649 38.576496 20.393052
RightForeArm -25.551937 -0.000000 6.024058
RightHand -6.990699 0.000000 10.413674
RightHandThumb1 -24.326973 -0.000000 -32.862282
LeftUpLeg -2.167633 6.129887 0.027996
LeftLeg -4.761711 -0.000000 0.000000
LeftFoot -20.526428 24.911651 -12.315039
LeftToeBase 26.303440 -0.000000 -0.000000
RightUpLeg -2.976170 -8.827036 2.013132
RightLeg -1.392871 -0.000000 0.000000
RightFoot -22.916214 -27.840627 16.184477
RightToeBase 23.081359 -0.000000 -0.000000
